<svg id="Layer_1" data-name="Layer 1" xmlns="http://www.w3.org/2000/svg" viewBox="0 0 24 24" stroke-width="1.5" width="24" height="24" color="#fff"><defs><style>.cls-637b82edf95e86b59c57a08d-1{fill:none;stroke:currentColor;stroke-miterlimit:10;}</style></defs><rect class="cls-637b82edf95e86b59c57a08d-1" x="1.43" y="2.41" width="19.13" height="4.78"></rect><polyline class="cls-637b82edf95e86b59c57a08d-1" points="20.57 13.89 20.57 7.2 1.44 7.2 1.44 19.63 9.09 19.63"></polyline><line class="cls-637b82edf95e86b59c57a08d-1" x1="11" y1="0.5" x2="11" y2="4.33"></line><line class="cls-637b82edf95e86b59c57a08d-1" x1="15.78" y1="0.5" x2="15.78" y2="4.33"></line><line class="cls-637b82edf95e86b59c57a08d-1" x1="6.22" y1="0.5" x2="6.22" y2="4.33"></line><rect class="cls-637b82edf95e86b59c57a08d-1" x="13.87" y="17.72" width="5.74" height="4.78"></rect><polygon class="cls-637b82edf95e86b59c57a08d-1" points="16.74 13.89 12.91 17.72 20.57 17.72 16.74 13.89"></polygon><line class="cls-637b82edf95e86b59c57a08d-1" x1="9.09" y1="11.02" x2="11" y2="11.02"></line><line class="cls-637b82edf95e86b59c57a08d-1" x1="5.26" y1="11.02" x2="7.17" y2="11.02"></line><line class="cls-637b82edf95e86b59c57a08d-1" x1="12.91" y1="11.02" x2="14.83" y2="11.02"></line><line class="cls-637b82edf95e86b59c57a08d-1" x1="9.09" y1="14.85" x2="11" y2="14.85"></line><line class="cls-637b82edf95e86b59c57a08d-1" x1="5.26" y1="14.85" x2="7.17" y2="14.85"></line></svg>