<?xml version="1.0" standalone="no"?>
<!DOCTYPE svg PUBLIC "-//W3C//DTD SVG 20010904//EN"
 "http://www.w3.org/TR/2001/REC-SVG-20010904/DTD/svg10.dtd">
<svg version="1.0" xmlns="http://www.w3.org/2000/svg"
 width="192.000000pt" height="192.000000pt" viewBox="0 0 192.000000 192.000000"
 preserveAspectRatio="xMidYMid meet">
<metadata>
Created by potrace 1.14, written by Peter Selinger 2001-2017
</metadata>
<g transform="translate(0.000000,192.000000) scale(0.100000,-0.100000)"
fill="#000000" stroke="none">
<path d="M945 1913 c-50 -11 -83 -29 -126 -71 -46 -43 -48 -44 -83 -32 -50 16
-112 15 -140 -4 -106 -69 -104 -202 4 -300 43 -38 112 -75 141 -76 13 0 16 -9
15 -39 -1 -47 26 -83 58 -77 12 2 38 11 58 20 51 22 63 20 100 -13 l32 -28
-45 -15 -44 -15 55 -25 55 -25 -44 -12 c-43 -12 -44 -13 -20 -25 24 -12 29
-34 14 -68 -6 -14 -2 -18 18 -18 42 0 150 -38 179 -63 15 -13 32 -35 37 -49 9
-25 9 -24 -66 13 -41 21 -80 36 -86 34 -7 -2 -24 -6 -38 -9 -14 -3 -38 -15
-52 -26 -21 -17 -25 -25 -18 -39 9 -16 5 -17 -32 -15 -149 11 -157 11 -155 -2
4 -17 -5 -17 -48 1 -41 17 -84 20 -84 6 0 -5 5 -22 10 -37 l10 -26 -47 7 c-27
3 -63 9 -80 11 -18 3 -33 2 -33 -3 0 -4 19 -26 42 -50 23 -23 40 -45 37 -47
-3 -3 -20 -7 -38 -8 -38 -3 -46 -11 -29 -30 7 -7 22 -24 33 -37 l20 -24 -22
12 c-25 13 -44 14 -42 4 3 -21 -2 -69 -9 -80 -5 -8 -19 -9 -44 -4 -20 5 -39 6
-42 3 -3 -3 10 -24 29 -48 19 -23 35 -46 35 -51 0 -10 -57 -49 -90 -61 -37
-14 -118 -9 -135 9 -13 13 -12 19 10 51 14 20 25 46 25 56 0 11 -18 43 -41 71
l-41 52 61 -3 c46 -2 65 2 71 12 15 23 12 40 -7 41 -89 4 -115 8 -128 19 -14
12 -15 5 -10 -65 3 -43 8 -82 11 -86 2 -4 6 -40 9 -80 9 -115 31 -134 165
-143 96 -7 168 -25 190 -49 23 -24 34 -72 28 -121 -5 -45 6 -37 27 19 34 88
-3 155 -100 180 -32 8 -71 15 -85 16 -22 1 -20 3 15 20 22 10 49 19 60 19 30
0 131 51 239 119 91 58 258 127 278 114 5 -2 -7 -24 -27 -48 -68 -83 -84 -163
-42 -203 13 -12 28 -22 33 -22 15 0 54 -44 54 -60 0 -7 -31 -48 -70 -91 -39
-42 -70 -82 -70 -88 0 -6 14 -11 31 -11 41 0 33 -10 -87 -101 -52 -40 -94 -76
-94 -82 0 -15 52 -1 162 43 95 39 212 71 303 85 36 5 90 17 138 31 14 5 16 9
6 20 -18 21 -95 17 -203 -11 -53 -14 -102 -25 -109 -25 -6 0 5 16 25 35 38 35
77 50 163 60 110 14 122 19 84 34 -13 5 -44 19 -69 31 l-45 21 55 -7 c81 -11
102 -8 122 16 11 13 24 19 35 16 71 -21 140 -6 177 39 11 15 36 54 53 88 l33
62 -43 18 c-106 44 -105 43 -43 44 74 2 122 27 162 85 34 50 84 186 84 227 0
82 -62 166 -142 191 l-45 15 23 95 c37 149 25 231 -43 302 -39 41 -84 58 -155
58 -64 0 -65 1 -157 62 -37 25 -63 22 -152 -16 -43 -19 -79 -31 -79 -28 2 35
57 83 124 110 l47 18 -43 55 c-23 29 -50 60 -58 67 -43 37 -152 67 -205 55z"/>
<path d="M430 1311 c-8 -16 -8 -21 2 -21 7 0 37 -3 66 -6 60 -7 69 6 15 23
-21 6 -46 15 -55 18 -11 4 -20 0 -28 -14z"/>
<path d="M365 1208 c-21 -35 -89 -114 -151 -176 -62 -62 -116 -122 -120 -134
-5 -16 -1 -27 16 -40 12 -10 29 -18 36 -18 8 0 19 -10 24 -22 8 -21 9 -20 9
10 1 32 2 33 34 27 25 -5 37 -2 51 14 24 27 15 57 -13 40 -13 -9 -31 -10 -62
-3 l-44 10 111 109 c62 61 119 124 128 142 15 31 32 103 23 103 -2 0 -21 -28
-42 -62z"/>
<path d="M450 1215 c0 -24 34 -135 42 -135 4 0 36 14 70 31 l62 32 -74 38
c-71 36 -100 46 -100 34z"/>
</g>
</svg>
