<svg xmlns="http://www.w3.org/2000/svg" viewBox="0 0 173.47 190.99"><defs><style>.cls-1{fill:#333;}</style></defs><title>Ресурс 7</title><g id="Слой_2" data-name="Слой 2"><g id="Слой_1-2" data-name="Слой 1"><path class="cls-1" d="M67.89,12.29c4.27-5.83,9.4-10.53,17-11.88A24.54,24.54,0,0,1,109.92,11c1.63,2.4,3.58,4.58,5.58,7.1C107.56,20.39,99.65,23.44,98,32c4.34-2,9.2-4.42,14.21-6.47s9.35.1,13.18,3.45c3.3,2.88,6.45,4.34,11.51,3.62,14.11-2,26,13.9,21.92,28.32-1.57,5.57-2.87,11.21-4.38,17.18,9.79,2,16.51,7.22,18.57,17.17a14,14,0,0,1,.15,6.41c-2.57,9-5.7,18-12.17,24.7-2.6,2.71-8.09,2.84-12.35,3.67-1.61.31-3.47-.7-5.22-1.11l-.54,1.46,14.43,5.52c-2.82,5-5,11.51-9.34,16-5.11,5.36-12.39,4.75-19.4,1.91-.92,6-5.32,5.24-9.37,4.65-3.4-.49-6.72-1.44-10.34-1.37l15.29,7c-11.57,2.78-24.26.34-31.55,11.84,11.16-1.38,21.61-7.67,33.24-4.35l.4,1.74c-5.47,1.3-10.88,3.14-16.43,3.78-11.54,1.34-22.29,4.94-32.77,9.73-3.7,1.69-7.69,2.76-11.55,4.12l-1-1.67,22.43-17.59-7.61-.61c-.11-.54-.33-1-.21-1.12q6.19-6.82,12.44-13.59c3.1-3.35,3-5.62-.48-8.28-3.14-2.42-8.08-3-8.42-8.29-.4-6.13,2.59-10.83,6.28-15.26,1.26-1.51,2.46-3.06,3.69-4.59l-.63-1.55c-5.77,1.83-11.73,3.23-17.26,5.63-4.68,2-8.9,5.15-13.25,7.91-7.73,4.9-15.48,9.65-24.74,11.2-1.87.31-3.61,1.42-6.57,2.63,8.47,2.82,18.33.7,21.56,10.83,1.79,5.62-1,10.24-3.49,14.93.16-1.79.43-3.58.45-5.37.1-9.26-2.52-12.65-11.6-14.28a124.84,124.84,0,0,0-14.37-1.48c-9.52-.58-12.27-3.63-12.31-12.91,0-4.05-1.24-8.08-1.67-12.15A117.92,117.92,0,0,1,7.82,112c0-2.71-.3-4-3.34-4.89-5-1.38-5.69-4.36-2.74-8.6a10.55,10.55,0,0,1,1.88-2.32,107.11,107.11,0,0,0,27.59-32c.18,8.93-4.27,14.14-9.23,19-4,4-8.34,7.67-12.37,11.65a54.58,54.58,0,0,0-4.45,5.66l10.08,1.36,2.45-2.8c.33,1.36.78,2.14.62,2.77-1.12,4.38-3.71,5.26-9.35,3.28-2,8.82-.77,10.33,8.13,10.16,2,0,3.94.18,6,.28.62,4.16-1.49,5.34-4.8,5.24-2.78-.09-5.55-.36-9.88-.66,2.68,3.07,4.41,5.17,6.28,7.14,3.2,3.39,4,6.6.39,10.41s-3.06,6.1,1.9,7.38a20.1,20.1,0,0,0,10.89-.68c3.49-1.19,6.45-3.94,9.61-6L30,128.95l1-1.05,8,1.82,1.46-10.56,4.52,2.33.61-.67-6.26-7.33,9.41-1.36-9.13-9.3.85-1.28,15.25,2.7c-.41-1.29-.66-2-.88-2.76-.5-1.7-1-3.4-1.47-5.09,1.86.17,3.83,0,5.56.59a83.11,83.11,0,0,1,8,3.6v-3.5L86.64,98.3,85,94.3c8.3-7.25,14.59-6.59,27.26,2.77-.28-8.35-8.49-13.37-25-15.07,2.63-3.7,5.29-7.56-3.39-9.17L94,70.27,82.33,65.41l8.22-3.16c-3.36-5.86-7.48-7.13-13-4.33-6.82,3.46-9.23,2.88-11.5-3.39-.56-1.56.38-3.66.71-6.08C59.59,48,53.57,44.3,48.42,38.84c-7.39-7.83-8.74-19.12-.69-26C52.94,8.33,58.95,8.08,67.89,12.29Z"/><path class="cls-1" d="M52.53,77.11,39,84,35.58,70.25,36.46,69Z"/><path class="cls-1" d="M45.67,63.54,32.74,62.17l2.17-3.52,10.9,3.61Z"/></g></g></svg>