<svg xmlns="http://www.w3.org/2000/svg" viewBox="0 0 209.71 209.93"><defs><style>.cls-1{fill:#fff;}.cls-2{fill:#333;}</style></defs><title>Ресурс 2</title><g id="Слой_2" data-name="Слой 2"><g id="Слой_1-2" data-name="Слой 1"><path class="cls-1" d="M209.71,209.93H0V0H209.71ZM87.32,23.72c-8.94-4.21-15-4-20.17.51-8,6.91-6.7,18.21.69,26C73,55.73,79,59.41,86.19,59.88c-.33,2.41-1.27,4.52-.71,6.08,2.26,6.27,4.67,6.85,11.5,3.39,5.51-2.8,9.64-1.53,13,4.33l-8.22,3.16,11.64,4.85-10.13,2.56c8.68,1.61,6,5.47,3.39,9.17,16.51,1.7,24.72,6.72,25,15.07-12.66-9.37-19-10-27.26-2.77l1.67,4-19.75-1.21V112a83.11,83.11,0,0,0-8-3.6c-1.73-.57-3.7-.42-5.56-.59.49,1.7,1,3.4,1.47,5.09.22.74.46,1.46.88,2.76L59.83,113,59,114.25l9.13,9.3-9.41,1.36L65,132.24l-.61.67-4.52-2.33-1.46,10.56-8-1.82-1,1.05,7.54,9.44c-3.17,2.05-6.12,4.81-9.61,6a20.1,20.1,0,0,1-10.89.68c-5-1.28-5.39-3.65-1.9-7.38s2.81-7-.39-10.41c-1.86-2-3.59-4.08-6.28-7.14,4.33.3,7.1.57,9.88.66,3.3.11,5.42-1.07,4.8-5.24-2.07-.1-4-.32-6-.28-8.91.17-10.14-1.34-8.13-10.16,5.64,2,8.23,1.1,9.35-3.28.16-.62-.3-1.4-.62-2.77l-2.45,2.8-10.08-1.36A54.58,54.58,0,0,1,29,106.29c4-4,8.33-7.68,12.37-11.65,5-4.87,9.42-10.08,9.23-19a107.11,107.11,0,0,1-27.59,32A10.55,10.55,0,0,0,21.17,110c-2.95,4.23-2.24,7.22,2.74,8.6,3,.84,3.36,2.18,3.34,4.89a117.92,117.92,0,0,0,.86,13.35c.43,4.07,1.66,8.1,1.67,12.15,0,9.29,2.79,12.33,12.31,12.91a124.84,124.84,0,0,1,14.37,1.48c9.08,1.63,11.7,5,11.6,14.28,0,1.79-.29,3.58-.45,5.37,2.53-4.69,5.28-9.31,3.49-14.93-3.23-10.13-13.09-8-21.56-10.83,3-1.21,4.69-2.31,6.57-2.63,9.26-1.55,17-6.31,24.74-11.2,4.35-2.76,8.57-5.88,13.25-7.91,5.53-2.4,11.49-3.8,17.26-5.63l.63,1.55c-1.23,1.53-2.44,3.08-3.69,4.59-3.69,4.43-6.67,9.13-6.28,15.26.34,5.3,5.29,5.87,8.42,8.29,3.45,2.67,3.58,4.94.48,8.28q-6.26,6.75-12.44,13.59c-.12.13.1.58.21,1.12l7.61.61L83.87,200.74l1,1.67c3.86-1.36,7.85-2.43,11.55-4.12,10.48-4.79,21.23-8.39,32.77-9.73,5.55-.64,11-2.48,16.43-3.78l-.4-1.74c-11.63-3.32-22.08,3-33.24,4.35,7.29-11.49,20-9.06,31.55-11.84l-15.29-7c3.62-.07,6.95.88,10.34,1.37,4.05.58,8.45,1.38,9.37-4.65,7,2.84,14.3,3.45,19.4-1.91,4.29-4.51,6.52-11,9.34-16L162.3,141.8l.54-1.46c1.75.41,3.62,1.42,5.22,1.11,4.27-.83,9.75-1,12.35-3.67,6.47-6.74,9.6-15.74,12.17-24.7a14,14,0,0,0-.15-6.41c-2.05-9.95-8.77-15.16-18.57-17.17,1.51-6,2.81-11.62,4.38-17.18C182.32,57.9,170.44,42,156.33,44c-5.05.72-8.21-.74-11.51-3.62-3.83-3.35-8.06-5.54-13.18-3.45s-9.86,4.47-14.21,6.47c1.64-8.53,9.55-11.58,17.49-13.87-2-2.52-4-4.7-5.58-7.1a24.54,24.54,0,0,0-25.06-10.59C96.72,13.18,91.59,17.88,87.32,23.72ZM72,88.53,55.88,80.46,55,81.67l3.43,13.78ZM65.1,75l.13-1.28-10.9-3.61-2.17,3.52Z"/><path class="cls-2" d="M87.32,23.72c4.27-5.83,9.4-10.53,17-11.88a24.54,24.54,0,0,1,25.06,10.59c1.63,2.4,3.58,4.58,5.58,7.1-7.94,2.29-15.85,5.34-17.49,13.87,4.34-2,9.2-4.42,14.21-6.47s9.35.1,13.18,3.45c3.3,2.88,6.45,4.34,11.51,3.62,14.11-2,26,13.9,21.92,28.32-1.57,5.57-2.87,11.21-4.38,17.18,9.79,2,16.51,7.22,18.57,17.17a14,14,0,0,1,.15,6.41c-2.57,9-5.7,18-12.17,24.7-2.6,2.71-8.09,2.84-12.35,3.67-1.61.31-3.47-.7-5.22-1.11l-.54,1.46,14.43,5.52c-2.82,5-5,11.51-9.34,16-5.11,5.36-12.39,4.75-19.4,1.91-.92,6-5.32,5.24-9.37,4.65-3.4-.49-6.72-1.44-10.34-1.37l15.29,7c-11.57,2.78-24.26.34-31.55,11.84,11.16-1.38,21.61-7.67,33.24-4.35l.4,1.74c-5.47,1.3-10.88,3.14-16.43,3.78-11.54,1.34-22.29,4.94-32.77,9.73-3.7,1.69-7.69,2.76-11.55,4.12l-1-1.67,22.43-17.59-7.61-.61c-.11-.54-.33-1-.21-1.12q6.19-6.82,12.44-13.59c3.1-3.35,3-5.62-.48-8.28-3.14-2.42-8.08-3-8.42-8.29-.4-6.13,2.59-10.83,6.28-15.26,1.26-1.51,2.46-3.06,3.69-4.59l-.63-1.55c-5.77,1.83-11.73,3.23-17.26,5.63-4.68,2-8.9,5.15-13.25,7.91-7.73,4.9-15.48,9.65-24.74,11.2-1.87.31-3.61,1.42-6.57,2.63,8.47,2.82,18.33.7,21.56,10.83,1.79,5.62-1,10.24-3.49,14.93.16-1.79.43-3.58.45-5.37.1-9.26-2.52-12.65-11.6-14.28a124.84,124.84,0,0,0-14.37-1.48c-9.52-.58-12.27-3.63-12.31-12.91,0-4.05-1.24-8.08-1.67-12.15a117.92,117.92,0,0,1-.86-13.35c0-2.71-.3-4-3.34-4.89-5-1.38-5.69-4.36-2.74-8.6a10.55,10.55,0,0,1,1.88-2.32,107.11,107.11,0,0,0,27.59-32c.18,8.93-4.27,14.14-9.23,19-4,4-8.34,7.67-12.37,11.65a54.58,54.58,0,0,0-4.45,5.66l10.08,1.36,2.45-2.8c.33,1.36.78,2.14.62,2.77-1.12,4.38-3.71,5.26-9.35,3.28-2,8.82-.77,10.33,8.13,10.16,2,0,3.94.18,6,.28.62,4.16-1.49,5.34-4.8,5.24-2.78-.09-5.55-.36-9.88-.66,2.68,3.07,4.41,5.17,6.28,7.14,3.2,3.39,4,6.6.39,10.41s-3.06,6.1,1.9,7.38a20.1,20.1,0,0,0,10.89-.68c3.49-1.19,6.45-3.94,9.61-6l-7.54-9.44,1-1.05,8,1.82,1.46-10.56,4.52,2.33.61-.67-6.26-7.33,9.41-1.36L59,114.25l.85-1.28,15.25,2.7c-.41-1.29-.66-2-.88-2.76-.5-1.7-1-3.4-1.47-5.09,1.86.17,3.83,0,5.56.59a83.11,83.11,0,0,1,8,3.6v-3.5l19.75,1.21-1.67-4c8.3-7.25,14.59-6.59,27.26,2.77-.28-8.35-8.49-13.37-25-15.07,2.63-3.7,5.29-7.56-3.39-9.17l10.13-2.56-11.64-4.85L110,73.67c-3.36-5.86-7.48-7.13-13-4.33-6.82,3.46-9.23,2.88-11.5-3.39-.56-1.56.38-3.66.71-6.08C79,59.41,73,55.73,67.84,50.26c-7.39-7.83-8.74-19.12-.69-26C72.36,19.75,78.38,19.5,87.32,23.72Z"/><path d="M72,88.53,58.44,95.45,55,81.67l.87-1.21Z"/><path d="M65.1,75,52.17,73.59l2.17-3.52,10.9,3.61Z"/></g></g></svg>